<?xml version="1.0" encoding="UTF-8"?>
<svg xmlns="http://www.w3.org/2000/svg" xmlns:xlink="http://www.w3.org/1999/xlink" width="40px" height="40px" viewBox="0 0 40 40" version="1.1">
<g id="surface1">
<path style=" stroke:none;fill-rule:nonzero;fill:rgb(69.803922%,44.705882%,7.843137%);fill-opacity:1;" d="M 36.050781 29.132812 C 38.875 28.847656 40.339844 32.390625 38.125 34.167969 C 37.625 34.570312 37.109375 34.949219 36.574219 35.304688 Z M 36.050781 29.132812 "/>
<path style=" stroke:none;fill-rule:nonzero;fill:rgb(69.803922%,44.705882%,7.843137%);fill-opacity:1;" d="M 5.832031 1.875 C 7.609375 -0.339844 11.152344 1.125 10.867188 3.949219 C 10.792969 4.714844 10.753906 5.488281 10.753906 6.273438 L 4.246094 4.121094 C 4.730469 3.339844 5.261719 2.589844 5.832031 1.875 Z M 5.832031 1.875 "/>
<path style=" stroke:none;fill-rule:nonzero;fill:rgb(96.862745%,69.803922%,22.352941%);fill-opacity:1;" d="M 36.050781 29.132812 L 36.574219 35.304688 C 32.917969 37.765625 28.511719 39.203125 23.769531 39.203125 C 11.046875 39.203125 0.796875 28.953125 0.796875 16.230469 C 0.796875 11.785156 2.058594 7.636719 4.246094 4.121094 L 10.753906 6.273438 C 10.753906 18.953125 21.046875 29.25 33.726562 29.246094 C 34.511719 29.246094 35.285156 29.207031 36.050781 29.132812 Z M 36.050781 29.132812 "/>
<path style=" stroke:none;fill-rule:nonzero;fill:rgb(87.843137%,60.784314%,17.647059%);fill-opacity:1;" d="M 5.742188 16.230469 C 5.742188 12.351562 6.703125 8.699219 8.398438 5.496094 L 4.246094 4.121094 C 2.058594 7.636719 0.796875 11.785156 0.796875 16.230469 C 0.796875 28.953125 11.046875 39.203125 23.769531 39.203125 C 24.605469 39.203125 25.429688 39.15625 26.238281 39.070312 C 14.6875 37.84375 5.742188 28.117188 5.742188 16.230469 Z M 5.742188 16.230469 "/>
<path style=" stroke:none;fill-rule:nonzero;fill:rgb(100%,100%,100%);fill-opacity:1;" d="M 26.628906 31.488281 C 26.554688 31.488281 26.480469 31.480469 26.40625 31.457031 C 22.203125 30.242188 18.324219 27.941406 15.191406 24.808594 C 11.667969 21.285156 9.234375 16.882812 8.152344 12.078125 C 8.054688 11.648438 8.324219 11.222656 8.753906 11.125 C 9.183594 11.027344 9.609375 11.296875 9.707031 11.726562 C 10.722656 16.238281 13.011719 20.371094 16.320312 23.679688 C 19.261719 26.625 22.90625 28.785156 26.851562 29.925781 C 27.273438 30.050781 27.515625 30.492188 27.394531 30.914062 C 27.292969 31.261719 26.976562 31.488281 26.628906 31.488281 Z M 26.628906 31.488281 "/>
<path style=" stroke:none;fill-rule:nonzero;fill:rgb(100%,100%,100%);fill-opacity:1;" d="M 9.148438 8.445312 C 9.148438 8.882812 8.792969 9.242188 8.351562 9.242188 C 7.910156 9.242188 7.554688 8.882812 7.554688 8.445312 C 7.554688 8.003906 7.910156 7.644531 8.351562 7.644531 C 8.792969 7.644531 9.148438 8.003906 9.148438 8.445312 Z M 9.148438 8.445312 "/>
<path style=" stroke:none;fill-rule:nonzero;fill:rgb(20%,20%,20%);fill-opacity:1;" d="M 39.71875 30.585938 C 39.09375 29.054688 37.621094 28.171875 35.96875 28.339844 C 35.230469 28.414062 34.476562 28.449219 33.726562 28.449219 C 27.808594 28.449219 22.238281 26.140625 18.046875 21.953125 C 13.859375 17.761719 11.550781 12.191406 11.550781 6.273438 C 11.550781 5.523438 11.585938 4.769531 11.660156 4.03125 C 11.828125 2.378906 10.945312 0.90625 9.414062 0.28125 C 7.890625 -0.339844 6.242188 0.0898438 5.210938 1.378906 C 1.851562 5.570312 0 10.84375 0 16.230469 C 0 22.59375 2.46875 28.570312 6.949219 33.050781 C 11.429688 37.53125 17.40625 40 23.769531 40 C 29.15625 40 34.429688 38.148438 38.621094 34.789062 C 39.910156 33.757812 40.339844 32.109375 39.71875 30.585938 Z M 6.453125 2.375 C 6.910156 1.804688 7.480469 1.597656 8.007812 1.597656 C 8.296875 1.597656 8.574219 1.660156 8.8125 1.757812 C 9.496094 2.039062 10.1875 2.738281 10.074219 3.871094 C 10.03125 4.304688 10 4.742188 9.980469 5.179688 L 5.476562 3.6875 C 5.785156 3.242188 6.109375 2.804688 6.453125 2.375 Z M 8.078125 31.921875 C 3.898438 27.742188 1.59375 22.167969 1.59375 16.230469 C 1.59375 12.242188 2.625 8.441406 4.59375 5.074219 L 9.960938 6.851562 C 10.109375 12.980469 12.566406 18.722656 16.921875 23.078125 C 21.414062 27.570312 27.382812 30.046875 33.726562 30.042969 C 34.257812 30.042969 34.792969 30.023438 35.324219 29.992188 L 35.742188 34.902344 C 32.179688 37.203125 28.085938 38.40625 23.769531 38.40625 C 17.832031 38.40625 12.257812 36.101562 8.078125 31.921875 Z M 37.625 33.546875 C 37.5 33.644531 37.375 33.742188 37.25 33.839844 L 36.921875 29.984375 C 37.597656 30.171875 38.035156 30.679688 38.242188 31.1875 C 38.519531 31.867188 38.503906 32.84375 37.625 33.546875 Z M 37.625 33.546875 "/>
<path style=" stroke:none;fill-rule:nonzero;fill:rgb(20%,20%,20%);fill-opacity:1;" d="M 30.167969 33.761719 C 29.5625 33.8125 28.949219 33.835938 28.339844 33.835938 C 22.398438 33.835938 16.824219 31.535156 12.644531 27.355469 C 8.464844 23.175781 6.164062 17.601562 6.164062 11.660156 C 6.164062 10.78125 6.214844 9.898438 6.316406 9.03125 C 6.367188 8.59375 6.054688 8.195312 5.617188 8.144531 C 5.183594 8.09375 4.785156 8.40625 4.734375 8.84375 C 4.625 9.773438 4.570312 10.71875 4.570312 11.660156 C 4.570312 18.027344 7.035156 24 11.515625 28.480469 C 16 32.964844 21.972656 35.429688 28.339844 35.429688 C 28.992188 35.429688 29.648438 35.40625 30.296875 35.351562 C 30.734375 35.316406 31.0625 34.929688 31.027344 34.492188 C 30.992188 34.054688 30.605469 33.726562 30.167969 33.761719 Z M 30.167969 33.761719 "/>
</g>
</svg>
