<?xml version="1.0" encoding="UTF-8"?>
<svg xmlns="http://www.w3.org/2000/svg" xmlns:xlink="http://www.w3.org/1999/xlink" width="40px" height="40px" viewBox="0 0 40 40" version="1.1">
<g id="surface1">
<path style=" stroke:none;fill-rule:nonzero;fill:rgb(100%,88.627451%,39.607843%);fill-opacity:1;" d="M 15.054688 21.390625 L 2.09375 21.859375 C 2.09375 21.859375 1.273438 21.039062 1.390625 20.742188 C 1.507812 20.449219 12.242188 12.0625 12.652344 12.121094 C 13.0625 12.179688 14.003906 13.179688 14.765625 12.824219 C 15.527344 12.472656 14.765625 10.417969 15 10.128906 C 15.234375 9.835938 23.621094 5.320312 24.148438 5.085938 C 24.679688 4.851562 25.148438 4.320312 26.203125 4.554688 C 27.257812 4.789062 29.898438 5.257812 32.773438 7.195312 C 35.644531 9.132812 38.636719 11.363281 38.402344 12.59375 C 38.167969 13.824219 15.054688 21.390625 15.054688 21.390625 Z M 15.054688 21.390625 "/>
<path style=" stroke:none;fill-rule:nonzero;fill:rgb(99.607843%,70.980392%,0.784314%);fill-opacity:1;" d="M 6.082031 36.117188 C 8.957031 35.761719 35.761719 30.015625 36.878906 29.839844 C 37.992188 29.664062 38.695312 28.609375 38.695312 27.433594 C 38.695312 26.257812 38.402344 12.59375 38.402344 12.59375 C 38.402344 12.59375 37.113281 13.003906 35.585938 13.355469 C 34.0625 13.707031 21.566406 16.757812 16.640625 17.871094 C 11.714844 18.988281 3.851562 21.039062 2.972656 21.039062 C 2.089844 21.039062 1.386719 20.746094 1.386719 20.746094 C 1.386719 20.746094 1.621094 32.945312 1.679688 33.828125 C 1.742188 34.710938 2.148438 35.761719 3.148438 36.054688 C 4.144531 36.351562 4.792969 36.273438 6.082031 36.117188 Z M 6.082031 36.117188 "/>
<path style=" stroke:none;fill-rule:nonzero;fill:rgb(100%,54.509804%,5.098039%);fill-opacity:1;" d="M 23.429688 7.988281 C 23.429688 8.738281 24.191406 9.234375 25.453125 9.195312 C 26.832031 9.15625 27.210938 8.335938 27.167969 7.8125 C 27.125 7.285156 26.492188 6.820312 25.234375 6.84375 C 24.070312 6.867188 23.429688 7.328125 23.429688 7.988281 Z M 23.429688 7.988281 "/>
<path style=" stroke:none;fill-rule:nonzero;fill:rgb(92.941176%,41.960784%,19.215686%);fill-opacity:1;" d="M 9.351562 17.335938 C 7.320312 18.023438 7.546875 19.800781 8.140625 20.195312 C 8.734375 20.59375 9.523438 20.570312 10.449219 20.242188 C 11.375 19.910156 11.960938 19.53125 12.054688 18.914062 C 12.144531 18.324219 11.375 16.652344 9.351562 17.335938 Z M 9.351562 17.335938 "/>
<path style=" stroke:none;fill-rule:nonzero;fill:rgb(92.941176%,41.960784%,19.215686%);fill-opacity:1;" d="M 27.804688 12.257812 C 26.445312 12.320312 24.9375 13.296875 24.375 14.238281 C 23.78125 15.226562 23.738281 16.394531 25.101562 17.117188 C 26.460938 17.84375 31.28125 15.996094 31.039062 14.304688 C 30.800781 12.605469 29.238281 12.191406 27.804688 12.257812 Z M 27.804688 12.257812 "/>
<path style=" stroke:none;fill-rule:nonzero;fill:rgb(92.941176%,41.960784%,19.215686%);fill-opacity:1;" d="M 23.078125 25.960938 C 23.078125 25.960938 25.011719 24.527344 25.011719 23.519531 C 25.011719 22.507812 24.179688 20.117188 20.632812 19.933594 C 17.3125 19.761719 15.265625 24.289062 17.445312 26.621094 C 19.621094 28.953125 20.941406 27.898438 21.757812 27.679688 C 22.570312 27.457031 23.078125 25.960938 23.078125 25.960938 Z M 23.078125 25.960938 "/>
<path style=" stroke:none;fill-rule:nonzero;fill:rgb(92.941176%,41.960784%,19.215686%);fill-opacity:1;" d="M 13.507812 30.027344 C 13.507812 30.027344 15.429688 28.824219 13.957031 27.507812 C 12.917969 26.578125 11.53125 26.996094 10.824219 27.71875 C 9.921875 28.644531 10.164062 30.117188 11 30.773438 C 11.835938 31.4375 13.507812 30.027344 13.507812 30.027344 Z M 13.507812 30.027344 "/>
<path style=" stroke:none;fill-rule:nonzero;fill:rgb(92.941176%,41.960784%,19.215686%);fill-opacity:1;" d="M 6.996094 24.617188 C 6.996094 24.617188 6.777344 23.929688 5.992188 23.648438 C 5.113281 23.335938 3.796875 24.433594 4.359375 25.605469 C 4.867188 26.664062 5.988281 26.351562 5.988281 26.351562 Z M 6.996094 24.617188 "/>
<path style=" stroke:none;fill-rule:nonzero;fill:rgb(92.941176%,41.960784%,19.215686%);fill-opacity:1;" d="M 35.132812 25.628906 C 35.320312 25.421875 36.570312 24.523438 36.570312 23.835938 C 36.570312 23.15625 34.691406 21.050781 32.292969 22.632812 C 29.898438 24.21875 31.148438 26.617188 31.808594 27.011719 C 32.46875 27.410156 34.296875 26.53125 35.132812 25.628906 Z M 35.132812 25.628906 "/>
<path style=" stroke:none;fill-rule:nonzero;fill:rgb(100%,54.509804%,5.098039%);fill-opacity:1;" d="M 9.644531 18.414062 C 8.308594 18.878906 7.804688 19.820312 8.140625 20.195312 C 8.492188 20.59375 9.261719 20.855469 10.601562 20.371094 C 11.640625 19.996094 12.164062 19.367188 12.078125 18.808594 C 12.015625 18.402344 10.851562 17.996094 9.644531 18.414062 Z M 9.644531 18.414062 "/>
<path style=" stroke:none;fill-rule:nonzero;fill:rgb(100%,54.509804%,5.098039%);fill-opacity:1;" d="M 5.195312 24.570312 C 4.609375 25.304688 5.085938 26.132812 5.632812 26.332031 C 6.183594 26.527344 7.152344 25.933594 7.085938 24.945312 C 7.019531 23.957031 5.722656 23.914062 5.195312 24.570312 Z M 5.195312 24.570312 "/>
<path style=" stroke:none;fill-rule:nonzero;fill:rgb(100%,54.509804%,5.098039%);fill-opacity:1;" d="M 11.992188 28.554688 C 10.734375 29.574219 10.699219 30.570312 11.183594 30.910156 C 11.523438 31.148438 12.765625 31.640625 13.902344 30.800781 C 14.746094 30.179688 14.761719 28.871094 14.496094 28.246094 C 14.273438 27.714844 13.046875 27.695312 11.992188 28.554688 Z M 11.992188 28.554688 "/>
<path style=" stroke:none;fill-rule:nonzero;fill:rgb(100%,54.509804%,5.098039%);fill-opacity:1;" d="M 19.617188 23.003906 C 17.933594 24.636719 17.535156 27.289062 19.183594 27.914062 C 20.636719 28.464844 22.726562 28.132812 23.957031 26.617188 C 25.25 25.023438 25.386719 23.265625 24.554688 22.226562 C 23.5625 20.980469 20.914062 21.742188 19.617188 23.003906 Z M 19.617188 23.003906 "/>
<path style=" stroke:none;fill-rule:nonzero;fill:rgb(100%,54.509804%,5.098039%);fill-opacity:1;" d="M 27.257812 13.882812 C 25.054688 14.632812 23.757812 16.214844 24.882812 17.007812 C 26.003906 17.800781 27.167969 17.683594 28.445312 17.25 C 29.890625 16.757812 30.996094 15.621094 31.039062 14.542969 C 31.074219 13.660156 29.195312 13.226562 27.257812 13.882812 Z M 27.257812 13.882812 "/>
<path style=" stroke:none;fill-rule:nonzero;fill:rgb(100%,54.509804%,5.098039%);fill-opacity:1;" d="M 33.132812 24 C 31.632812 25.21875 31.195312 26.441406 31.8125 27.011719 C 32.429688 27.585938 33.902344 27.847656 35.265625 26.902344 C 36.679688 25.921875 36.785156 24.808594 36.628906 23.914062 C 36.453125 22.902344 34.667969 22.746094 33.132812 24 Z M 33.132812 24 "/>
</g>
</svg>
