<?xml version="1.0" encoding="UTF-8"?>
<svg xmlns="http://www.w3.org/2000/svg" xmlns:xlink="http://www.w3.org/1999/xlink" width="40px" height="40px" viewBox="0 0 40 40" version="1.1">
<g id="surface1">
<path style=" stroke:none;fill-rule:nonzero;fill:rgb(58.823529%,40%,27.058824%);fill-opacity:1;" d="M 40 20 C 40 31.046875 31.046875 40 20 40 C 8.953125 40 0 31.046875 0 20 C 0 8.953125 8.953125 0 20 0 C 31.046875 0 40 8.953125 40 20 Z M 40 20 "/>
<path style=" stroke:none;fill-rule:nonzero;fill:rgb(92.941176%,92.941176%,92.941176%);fill-opacity:1;" d="M 38.617188 20 C 38.617188 30.28125 30.28125 38.617188 20 38.617188 C 9.71875 38.617188 1.382812 30.28125 1.382812 20 C 1.382812 9.71875 9.71875 1.382812 20 1.382812 C 30.28125 1.382812 38.617188 9.71875 38.617188 20 Z M 38.617188 20 "/>
<path style=" stroke:none;fill-rule:nonzero;fill:rgb(80%,80%,80%);fill-opacity:1;" d="M 34.226562 20 C 34.226562 27.859375 27.859375 34.226562 20 34.226562 C 12.140625 34.226562 5.773438 27.859375 5.773438 20 C 5.773438 12.140625 12.140625 5.773438 20 5.773438 C 27.859375 5.773438 34.226562 12.140625 34.226562 20 Z M 34.226562 20 "/>
</g>
</svg>
