<?xml version="1.0" encoding="UTF-8"?>
<svg xmlns="http://www.w3.org/2000/svg" xmlns:xlink="http://www.w3.org/1999/xlink" width="40px" height="40px" viewBox="0 0 40 40" version="1.1">
<g id="surface1">
<path style=" stroke:none;fill-rule:nonzero;fill:rgb(69.803922%,44.705882%,7.843137%);fill-opacity:1;" d="M 20.339844 14.558594 C 19.960938 14.558594 19.65625 14.25 19.65625 13.871094 L 19.65625 9.960938 C 19.65625 7.304688 21.796875 5.140625 24.429688 5.140625 C 24.808594 5.140625 25.113281 5.449219 25.113281 5.824219 C 25.113281 6.203125 24.808594 6.511719 24.429688 6.511719 C 22.554688 6.511719 21.027344 8.058594 21.027344 9.960938 L 21.027344 13.871094 C 21.027344 14.25 20.71875 14.558594 20.339844 14.558594 Z M 20.339844 14.558594 "/>
<path style=" stroke:none;fill-rule:nonzero;fill:rgb(96.862745%,69.803922%,22.352941%);fill-opacity:1;" d="M 28.097656 22.011719 C 30.257812 24.132812 31.6875 27.101562 31.6875 30.390625 C 31.6875 36.839844 26.433594 40 19.984375 40 C 13.535156 40 8.3125 36.839844 8.3125 30.390625 C 8.3125 27.082031 9.632812 24.097656 11.867188 21.972656 C 13.390625 20.527344 14.242188 18.539062 14.242188 16.4375 L 14.242188 16.402344 C 14.242188 13.179688 16.957031 10.574219 20.207031 10.691406 C 23.304688 10.800781 25.757812 13.441406 25.757812 16.539062 C 25.757812 18.609375 26.625 20.5625 28.097656 22.011719 Z M 28.097656 22.011719 "/>
<path style=" stroke:none;fill-rule:nonzero;fill:rgb(87.843137%,60.784314%,17.647059%);fill-opacity:1;" d="M 16.59375 21.972656 C 15.65625 24.097656 15.101562 27.082031 15.101562 30.390625 C 15.101562 36.832031 17.285156 39.992188 19.984375 40 C 13.535156 40 8.3125 36.839844 8.3125 30.390625 C 8.3125 27.082031 9.632812 24.097656 11.867188 21.972656 C 13.390625 20.527344 14.242188 18.539062 14.242188 16.4375 L 14.242188 16.402344 C 14.242188 13.246094 16.839844 10.6875 20 10.6875 C 18.675781 10.6875 17.585938 13.246094 17.585938 16.402344 L 17.585938 16.4375 C 17.585938 18.539062 17.230469 20.527344 16.59375 21.972656 Z M 16.59375 21.972656 "/>
<path style=" stroke:none;fill-rule:nonzero;fill:rgb(60.392157%,81.960784%,29.411765%);fill-opacity:1;" d="M 20.503906 8.488281 C 15.816406 8.488281 12.015625 4.6875 12.015625 0 C 14.359375 0 16.484375 0.949219 18.019531 2.488281 C 19.554688 4.023438 20.503906 6.144531 20.503906 8.488281 Z M 20.503906 8.488281 "/>
<path style=" stroke:none;fill-rule:nonzero;fill:rgb(56.470588%,73.72549%,25.882353%);fill-opacity:1;" d="M 20.503906 8.488281 L 12.015625 0 C 14.359375 0 16.484375 0.949219 18.019531 2.488281 C 19.554688 4.023438 20.503906 6.144531 20.503906 8.488281 Z M 20.503906 8.488281 "/>
</g>
</svg>
