<?xml version="1.0" encoding="UTF-8"?>
<svg xmlns="http://www.w3.org/2000/svg" xmlns:xlink="http://www.w3.org/1999/xlink" width="40px" height="40px" viewBox="0 0 40 40" version="1.1">
<g id="surface1">
<path style=" stroke:none;fill-rule:nonzero;fill:rgb(36.078431%,56.862745%,23.137255%);fill-opacity:1;" d="M 20.269531 10.703125 C 19.960938 7.027344 22.679688 5.460938 22.679688 5.460938 C 19.125 5.585938 17.242188 8.597656 17.242188 8.597656 C 16.40625 7.15625 18.292969 4.140625 19.652344 3.355469 C 16.097656 3.480469 15.574219 5.710938 15.574219 5.710938 C 13.902344 2.820312 14.429688 0.59375 14.429688 0.59375 C 13.183594 1.3125 12.464844 2.941406 12.050781 4.496094 L 9.472656 1.527344 C 9.21875 2.6875 9.648438 5.054688 10.109375 7.039062 C 6.714844 5.046875 3.550781 6.871094 3.550781 6.871094 C 7.941406 8.191406 9.609375 11.078125 9.609375 11.078125 C 9.609375 11.078125 5.222656 9.761719 3.335938 12.777344 C 6.21875 12.671875 8.335938 13.328125 9.839844 14.140625 C 8.546875 14.464844 6.347656 13.878906 5.003906 15.664062 C 5.003906 15.664062 8.554688 15.539062 9.28125 16.835938 C 6.867188 17.519531 5.308594 19.339844 5.308594 19.339844 C 10.222656 18.429688 15.445312 21.195312 15.445312 21.195312 L 22.246094 17.269531 C 21.101562 12.148438 25.179688 9.792969 25.179688 9.792969 C 22.152344 7.6875 20.269531 10.703125 20.269531 10.703125 Z M 20.269531 10.703125 "/>
<path style=" stroke:none;fill-rule:nonzero;fill:rgb(100%,67.45098%,20%);fill-opacity:1;" d="M 32.84375 25.421875 C 35.609375 30.210938 34.199219 36.199219 29.691406 38.800781 C 25.1875 41.402344 19.292969 39.628906 16.53125 34.84375 L 14.765625 31.785156 C 12 26.996094 13.414062 21.007812 17.917969 18.40625 C 22.421875 15.804688 28.316406 17.578125 31.078125 22.363281 Z M 32.84375 25.421875 "/>
<path style=" stroke:none;fill-rule:nonzero;fill:rgb(100%,80%,30.196078%);fill-opacity:1;" d="M 33.957031 28.183594 C 33.71875 27.214844 33.34375 26.285156 32.84375 25.421875 L 32.636719 25.0625 L 30.46875 24.144531 L 31.164062 22.511719 L 31.078125 22.363281 C 28.828125 18.464844 24.503906 16.566406 20.539062 17.402344 L 19.632812 19.542969 L 17.539062 18.652344 C 13.894531 21.011719 12.464844 25.675781 13.914062 29.90625 L 15.03125 30.382812 L 14.585938 31.433594 C 14.648438 31.546875 14.699219 31.667969 14.765625 31.78125 L 16.53125 34.839844 C 17.265625 36.109375 18.257812 37.210938 19.441406 38.074219 L 19.695312 37.476562 L 21.863281 38.394531 L 21.503906 39.246094 C 22.238281 39.546875 23.007812 39.761719 23.792969 39.878906 L 24.03125 39.316406 L 25.589844 39.976562 C 26.886719 39.925781 28.152344 39.589844 29.304688 38.996094 L 29.285156 38.988281 L 30.207031 36.820312 L 31.527344 37.382812 C 32.105469 36.808594 32.605469 36.160156 33.011719 35.453125 L 31.128906 34.652344 L 32.046875 32.484375 L 33.902344 33.269531 C 34.113281 32.492188 34.234375 31.683594 34.253906 30.863281 L 32.96875 30.316406 L 33.890625 28.148438 Z M 27.054688 20.132812 L 29.222656 21.054688 L 28.300781 23.222656 L 26.132812 22.300781 Z M 27.382812 25.390625 L 26.460938 27.558594 L 24.292969 26.640625 L 25.214844 24.472656 Z M 22.71875 18.292969 L 24.886719 19.214844 L 23.964844 21.382812 L 21.796875 20.464844 Z M 20.878906 22.628906 L 23.046875 23.550781 L 22.125 25.71875 L 19.960938 24.796875 Z M 16.542969 20.789062 L 18.710938 21.710938 L 17.789062 23.875 L 15.625 22.957031 Z M 13.785156 27.292969 L 14.703125 25.125 L 16.871094 26.046875 L 15.949219 28.214844 Z M 18.445312 34.390625 L 16.277344 33.46875 L 17.199219 31.300781 L 19.367188 32.222656 Z M 18.117188 29.132812 L 19.039062 26.964844 L 21.207031 27.882812 L 20.285156 30.054688 Z M 22.78125 36.230469 L 20.613281 35.308594 L 21.535156 33.140625 L 23.699219 34.0625 Z M 22.453125 30.972656 L 23.375 28.804688 L 25.539062 29.726562 L 24.621094 31.894531 Z M 27.117188 38.070312 L 24.949219 37.152344 L 25.867188 34.984375 L 28.035156 35.902344 Z M 28.957031 33.734375 L 26.789062 32.8125 L 27.710938 30.644531 L 29.878906 31.566406 Z M 30.796875 29.398438 L 28.628906 28.480469 L 29.550781 26.3125 L 31.71875 27.230469 Z M 30.796875 29.398438 "/>
</g>
</svg>
