<?xml version="1.0" encoding="UTF-8"?>
<svg xmlns="http://www.w3.org/2000/svg" xmlns:xlink="http://www.w3.org/1999/xlink" width="40px" height="40px" viewBox="0 0 40 40" version="1.1">
<g id="surface1">
<path style=" stroke:none;fill-rule:nonzero;fill:rgb(98.823529%,81.568627%,30.588235%);fill-opacity:1;" d="M 18.78125 22.023438 C 21.179688 20.726562 24 20.40625 26.648438 21.152344 C 29.179688 17.429688 30.941406 13.148438 31.757812 8.738281 C 31.886719 8.046875 31.625 7.339844 31.082031 6.894531 C 30.535156 6.449219 29.792969 6.339844 29.140625 6.605469 C 24.988281 8.304688 21.160156 10.90625 18.027344 14.140625 C 19.300781 16.585938 19.5625 19.414062 18.78125 22.023438 Z M 18.78125 22.023438 "/>
<path style=" stroke:none;fill-rule:nonzero;fill:rgb(96.470588%,73.333333%,20%);fill-opacity:1;" d="M 24.6875 21.191406 L 26.167969 21.847656 C 28.960938 17.953125 30.882812 13.460938 31.757812 8.738281 C 31.859375 8.183594 31.703125 7.625 31.359375 7.195312 C 30.292969 12.285156 28.023438 17.085938 24.742188 21.125 Z M 24.6875 21.191406 "/>
<path style=" stroke:none;fill-rule:nonzero;fill:rgb(58.431373%,78.039216%,31.764706%);fill-opacity:1;" d="M 25.878906 23.585938 C 26.117188 23.292969 26.398438 23.050781 26.707031 22.863281 C 23.265625 21.675781 19.292969 22.683594 16.863281 25.667969 L 11.261719 32.558594 C 13.996094 34.265625 17.648438 33.707031 19.734375 31.144531 Z M 25.878906 23.585938 "/>
<path style=" stroke:none;fill-rule:nonzero;fill:rgb(43.137255%,71.764706%,28.235294%);fill-opacity:1;" d="M 26.695312 22.859375 C 26.085938 22.652344 25.410156 22.875 25.003906 23.375 L 19.957031 29.582031 C 18.054688 31.925781 14.84375 32.585938 12.21875 31.382812 L 11.265625 32.558594 C 14 34.265625 17.652344 33.707031 19.738281 31.144531 L 25.882812 23.589844 C 26.121094 23.296875 26.402344 23.054688 26.710938 22.867188 C 26.703125 22.863281 26.699219 22.859375 26.695312 22.859375 Z M 26.695312 22.859375 "/>
<path style=" stroke:none;fill-rule:nonzero;fill:rgb(58.431373%,78.039216%,31.764706%);fill-opacity:1;" d="M 10.003906 31.53125 L 15.605469 24.644531 C 18.03125 21.660156 18.207031 17.566406 16.34375 14.4375 C 16.222656 14.777344 16.042969 15.101562 15.804688 15.394531 L 9.660156 22.949219 C 7.574219 25.515625 7.777344 29.203125 10.003906 31.53125 Z M 10.003906 31.53125 "/>
<path style=" stroke:none;fill-rule:nonzero;fill:rgb(43.137255%,71.764706%,28.235294%);fill-opacity:1;" d="M 10.511719 21.902344 L 9.660156 22.953125 C 7.574219 25.515625 7.777344 29.207031 10.003906 31.535156 L 10.855469 30.484375 C 8.628906 28.15625 8.429688 24.464844 10.511719 21.902344 Z M 10.511719 21.902344 "/>
<path style=" stroke:none;fill-rule:nonzero;fill:rgb(0%,26.27451%,39.215686%);fill-opacity:1;" d="M 25.9375 9.648438 C 25.9375 10.097656 26.300781 10.460938 26.75 10.460938 C 27.199219 10.460938 27.5625 10.097656 27.5625 9.648438 C 27.5625 9.199219 27.199219 8.835938 26.75 8.835938 C 26.300781 8.835938 25.9375 9.199219 25.9375 9.648438 Z M 25.9375 9.648438 "/>
<path style=" stroke:none;fill-rule:nonzero;fill:rgb(0%,26.27451%,39.215686%);fill-opacity:1;" d="M 28.457031 11.699219 C 28.457031 12.148438 28.820312 12.511719 29.269531 12.511719 C 29.71875 12.511719 30.082031 12.148438 30.082031 11.699219 C 30.082031 11.25 29.71875 10.886719 29.269531 10.886719 C 28.820312 10.886719 28.457031 11.25 28.457031 11.699219 Z M 28.457031 11.699219 "/>
<path style=" stroke:none;fill-rule:nonzero;fill:rgb(0%,26.27451%,39.215686%);fill-opacity:1;" d="M 22.867188 13.429688 C 22.867188 13.878906 23.230469 14.242188 23.679688 14.242188 C 24.128906 14.242188 24.492188 13.878906 24.492188 13.429688 C 24.492188 12.980469 24.128906 12.617188 23.679688 12.617188 C 23.230469 12.617188 22.867188 12.980469 22.867188 13.429688 Z M 22.867188 13.429688 "/>
<path style=" stroke:none;fill-rule:nonzero;fill:rgb(0%,26.27451%,39.215686%);fill-opacity:1;" d="M 25.382812 15.476562 C 25.382812 15.925781 25.746094 16.289062 26.195312 16.289062 C 26.644531 16.289062 27.007812 15.925781 27.007812 15.476562 C 27.007812 15.027344 26.644531 14.664062 26.195312 14.664062 C 25.746094 14.664062 25.382812 15.027344 25.382812 15.476562 Z M 25.382812 15.476562 "/>
<path style=" stroke:none;fill-rule:nonzero;fill:rgb(0%,26.27451%,39.215686%);fill-opacity:1;" d="M 19.792969 17.207031 C 19.792969 17.65625 20.15625 18.019531 20.605469 18.019531 C 21.054688 18.019531 21.417969 17.65625 21.417969 17.207031 C 21.417969 16.757812 21.054688 16.394531 20.605469 16.394531 C 20.15625 16.394531 19.792969 16.757812 19.792969 17.207031 Z M 19.792969 17.207031 "/>
<path style=" stroke:none;fill-rule:nonzero;fill:rgb(0%,26.27451%,39.215686%);fill-opacity:1;" d="M 22.3125 19.253906 C 22.3125 19.703125 22.675781 20.066406 23.125 20.066406 C 23.574219 20.066406 23.9375 19.703125 23.9375 19.253906 C 23.9375 18.804688 23.574219 18.441406 23.125 18.441406 C 22.675781 18.441406 22.3125 18.804688 22.3125 19.253906 Z M 22.3125 19.253906 "/>
<path style=" stroke:none;fill-rule:nonzero;fill:rgb(0%,26.27451%,39.215686%);fill-opacity:1;" d="M 28.179688 14.609375 C 28.179688 15.058594 28.542969 15.421875 28.992188 15.421875 C 29.441406 15.421875 29.804688 15.058594 29.804688 14.609375 C 29.804688 14.160156 29.441406 13.796875 28.992188 13.796875 C 28.542969 13.796875 28.179688 14.160156 28.179688 14.609375 Z M 28.179688 14.609375 "/>
<path style=" stroke:none;fill-rule:nonzero;fill:rgb(0%,26.27451%,39.215686%);fill-opacity:1;" d="M 23.140625 10.515625 C 23.140625 10.964844 23.503906 11.328125 23.953125 11.328125 C 24.402344 11.328125 24.765625 10.964844 24.765625 10.515625 C 24.765625 10.066406 24.402344 9.703125 23.953125 9.703125 C 23.503906 9.703125 23.140625 10.066406 23.140625 10.515625 Z M 23.140625 10.515625 "/>
<path style=" stroke:none;fill-rule:nonzero;fill:rgb(0%,26.27451%,39.215686%);fill-opacity:1;" d="M 28.734375 8.785156 C 28.734375 9.234375 29.097656 9.597656 29.546875 9.597656 C 29.996094 9.597656 30.359375 9.234375 30.359375 8.785156 C 30.359375 8.335938 29.996094 7.972656 29.546875 7.972656 C 29.097656 7.972656 28.734375 8.335938 28.734375 8.785156 Z M 28.734375 8.785156 "/>
<path style=" stroke:none;fill-rule:nonzero;fill:rgb(0%,26.27451%,39.215686%);fill-opacity:1;" d="M 25.660156 12.5625 C 25.660156 13.011719 26.023438 13.375 26.472656 13.375 C 26.921875 13.375 27.285156 13.011719 27.285156 12.5625 C 27.285156 12.113281 26.921875 11.75 26.472656 11.75 C 26.023438 11.75 25.660156 12.113281 25.660156 12.5625 Z M 25.660156 12.5625 "/>
<path style=" stroke:none;fill-rule:nonzero;fill:rgb(0%,26.27451%,39.215686%);fill-opacity:1;" d="M 25.109375 18.390625 C 25.109375 18.839844 25.472656 19.203125 25.921875 19.203125 C 26.371094 19.203125 26.734375 18.839844 26.734375 18.390625 C 26.734375 17.941406 26.371094 17.578125 25.921875 17.578125 C 25.472656 17.578125 25.109375 17.941406 25.109375 18.390625 Z M 25.109375 18.390625 "/>
<path style=" stroke:none;fill-rule:nonzero;fill:rgb(0%,26.27451%,39.215686%);fill-opacity:1;" d="M 20.070312 14.292969 C 20.070312 14.742188 20.433594 15.105469 20.882812 15.105469 C 21.332031 15.105469 21.695312 14.742188 21.695312 14.292969 C 21.695312 13.84375 21.332031 13.480469 20.882812 13.480469 C 20.433594 13.480469 20.070312 13.84375 20.070312 14.292969 Z M 20.070312 14.292969 "/>
<path style=" stroke:none;fill-rule:nonzero;fill:rgb(0%,26.27451%,39.215686%);fill-opacity:1;" d="M 22.589844 16.339844 C 22.589844 16.789062 22.953125 17.152344 23.402344 17.152344 C 23.851562 17.152344 24.214844 16.789062 24.214844 16.339844 C 24.214844 15.890625 23.851562 15.527344 23.402344 15.527344 C 22.953125 15.527344 22.589844 15.890625 22.589844 16.339844 Z M 22.589844 16.339844 "/>
<path style=" stroke:none;fill-rule:nonzero;fill:rgb(0%,26.27451%,39.215686%);fill-opacity:1;" d="M 30.445312 23.113281 C 29.742188 22.542969 28.988281 22.085938 28.207031 21.722656 C 30.742188 17.890625 32.519531 13.53125 33.355469 9.03125 C 33.589844 7.753906 33.113281 6.453125 32.105469 5.632812 C 31.097656 4.8125 29.726562 4.609375 28.523438 5.101562 C 24.289062 6.835938 20.382812 9.46875 17.152344 12.730469 C 16.636719 12.035156 16.035156 11.390625 15.335938 10.824219 C 14.988281 10.542969 14.476562 10.59375 14.195312 10.941406 C 13.914062 11.289062 13.964844 11.800781 14.3125 12.082031 C 15.007812 12.644531 15.113281 13.671875 14.546875 14.367188 L 8.402344 21.925781 C 5.578125 25.398438 6.109375 30.519531 9.578125 33.34375 C 13.050781 36.167969 18.171875 35.640625 20.996094 32.167969 L 27.140625 24.609375 C 27.707031 23.914062 28.730469 23.808594 29.425781 24.375 C 29.773438 24.65625 30.285156 24.605469 30.566406 24.257812 C 30.847656 23.910156 30.792969 23.398438 30.445312 23.113281 Z M 10.003906 31.53125 C 7.777344 29.203125 7.574219 25.511719 9.660156 22.949219 L 15.804688 15.394531 C 16.042969 15.101562 16.222656 14.777344 16.34375 14.4375 C 18.207031 17.566406 18.03125 21.660156 15.605469 24.644531 Z M 18.027344 14.144531 C 18.8125 13.335938 19.640625 12.5625 20.503906 11.839844 C 20.546875 11.902344 20.585938 11.964844 20.644531 12.011719 C 20.992188 12.292969 21.503906 12.242188 21.785156 11.894531 C 22.039062 11.582031 22.007812 11.140625 21.746094 10.847656 C 24.019531 9.121094 26.511719 7.683594 29.136719 6.609375 C 29.789062 6.34375 30.53125 6.453125 31.078125 6.898438 C 31.625 7.34375 31.882812 8.046875 31.753906 8.742188 C 31.238281 11.53125 30.339844 14.265625 29.113281 16.839844 C 28.773438 16.640625 28.335938 16.699219 28.082031 17.015625 C 27.800781 17.363281 27.851562 17.875 28.199219 18.15625 C 28.257812 18.207031 28.328125 18.230469 28.398438 18.261719 C 27.863281 19.257812 27.277344 20.226562 26.644531 21.15625 C 24.019531 20.421875 21.191406 20.726562 18.785156 22.015625 C 19.5625 19.394531 19.285156 16.5625 18.027344 14.144531 Z M 25.878906 23.585938 L 19.734375 31.140625 C 17.648438 33.703125 13.996094 34.261719 11.261719 32.554688 L 16.863281 25.667969 C 19.289062 22.683594 23.261719 21.675781 26.707031 22.863281 C 26.398438 23.050781 26.117188 23.292969 25.878906 23.585938 Z M 25.878906 23.585938 "/>
</g>
</svg>
