<?xml version="1.0" encoding="UTF-8"?>
<svg xmlns="http://www.w3.org/2000/svg" xmlns:xlink="http://www.w3.org/1999/xlink" width="40px" height="40px" viewBox="0 0 40 40" version="1.1">
<g id="surface1">
<path style=" stroke:none;fill-rule:nonzero;fill:rgb(0%,65.882353%,9.411765%);fill-opacity:1;" d="M 20.183594 0.00390625 C 10.492188 0.00390625 2.644531 7.871094 2.644531 17.589844 C 2.644531 26.144531 8.761719 33.253906 16.835938 34.835938 L 16.835938 39.871094 C 27.332031 38.28125 36.625 29.929688 37.316406 18.964844 C 37.734375 12.363281 34.453125 5.625 28.917969 2.351562 C 28.601562 2.167969 28.277344 1.980469 27.945312 1.816406 C 27.609375 1.648438 27.261719 1.488281 26.910156 1.347656 C 26.796875 1.300781 26.6875 1.257812 26.574219 1.210938 C 26.265625 1.097656 25.957031 0.96875 25.636719 0.878906 C 23.921875 0.308594 22.085938 0.00390625 20.183594 0.00390625 Z M 20.183594 0.00390625 "/>
<path style=" stroke:none;fill-rule:nonzero;fill:rgb(100%,100%,100%);fill-opacity:1;" d="M 23.816406 6.5 C 23.214844 6.441406 22.582031 6.648438 22.140625 7.175781 C 21.816406 7.605469 21.617188 8.019531 21.402344 8.453125 C 20.757812 9.957031 20.972656 11.570312 21.9375 12.757812 C 23.441406 12.433594 24.714844 11.472656 25.359375 9.964844 C 25.574219 9.535156 25.695312 8.984375 25.695312 8.554688 C 25.761719 7.410156 24.816406 6.605469 23.816406 6.5 Z M 16.003906 6.601562 C 15.023438 6.695312 14.089844 7.476562 14.089844 8.554688 C 14.089844 8.984375 14.210938 9.535156 14.425781 9.964844 C 15.070312 11.472656 16.445312 12.433594 17.949219 12.753906 C 18.804688 11.574219 19.027344 9.957031 18.382812 8.453125 C 18.167969 8.019531 17.96875 7.597656 17.644531 7.273438 C 17.203125 6.75 16.589844 6.546875 16.003906 6.601562 Z M 10.738281 11.78125 C 9.046875 11.867188 8.289062 14 9.699219 15.109375 C 10.128906 15.433594 10.542969 15.667969 10.972656 15.882812 C 12.472656 16.527344 14.210938 16.308594 15.5 15.445312 C 15.175781 14.046875 14.085938 12.761719 12.582031 12.117188 C 12.046875 11.902344 11.609375 11.78125 11.074219 11.78125 C 10.953125 11.765625 10.851562 11.773438 10.738281 11.78125 Z M 27.269531 18.304688 C 26.289062 18.285156 25.292969 18.574219 24.488281 19.109375 C 24.808594 20.511719 25.902344 21.792969 27.40625 22.441406 C 27.941406 22.65625 28.375 22.777344 28.914062 22.777344 C 30.84375 22.882812 31.789062 20.488281 30.289062 19.414062 C 29.859375 19.089844 29.441406 18.890625 29.015625 18.675781 C 28.449219 18.433594 27.859375 18.316406 27.269531 18.304688 Z M 12.617188 18.40625 C 12.027344 18.417969 11.433594 18.53125 10.871094 18.773438 C 10.335938 18.988281 9.917969 19.226562 9.597656 19.546875 C 8.203125 20.730469 9.140625 22.984375 11.074219 22.875 C 11.609375 22.875 12.152344 22.757812 12.582031 22.539062 C 14.085938 21.894531 15.152344 20.609375 15.363281 19.210938 C 14.550781 18.667969 13.59375 18.386719 12.617188 18.40625 Z M 18.046875 21.699219 C 16.546875 22.023438 15.273438 22.984375 14.628906 24.492188 C 14.414062 24.921875 14.292969 25.4375 14.292969 25.871094 C 14.183594 27.699219 16.671875 28.679688 17.746094 27.28125 C 18.066406 26.851562 18.269531 26.433594 18.484375 26.003906 C 19.128906 24.605469 18.90625 22.992188 18.046875 21.699219 Z M 22.039062 21.800781 C 21.179688 22.984375 20.957031 24.597656 21.601562 26.105469 C 21.816406 26.535156 22.019531 26.960938 22.339844 27.28125 C 23.519531 28.574219 26.003906 27.617188 25.894531 26.003906 C 25.894531 25.574219 25.773438 25.023438 25.558594 24.589844 C 24.914062 23.085938 23.542969 22.125 22.039062 21.800781 Z M 22.039062 21.800781 "/>
</g>
</svg>
