<?xml version="1.0" encoding="UTF-8"?>
<svg xmlns="http://www.w3.org/2000/svg" xmlns:xlink="http://www.w3.org/1999/xlink" width="40px" height="40px" viewBox="0 0 40 48" version="1.1">
<g id="surface1">
<path style=" stroke:none;fill-rule:nonzero;fill:rgb(88.627451%,18.823529%,18.823529%);fill-opacity:1;" d="M 36.757812 20.027344 C 32.625 12.476562 24.480469 14.152344 22.257812 15.863281 C 20.695312 17.0625 19.21875 16.863281 17.578125 15.863281 C 15 14.28125 6.515625 12.703125 3.089844 20.035156 C -1.035156 28.867188 3.710938 46.371094 12.824219 46.371094 C 12.824219 46.371094 15.101562 46.890625 18.839844 44.46875 C 19.507812 44.035156 20.375 44.074219 20.996094 44.46875 C 24.746094 46.871094 27.785156 46.371094 27.785156 46.371094 C 35.289062 46.363281 41.449219 28.613281 36.757812 20.027344 Z M 36.757812 20.027344 "/>
<path style=" stroke:none;fill-rule:nonzero;fill:rgb(18.039216%,80%,44.313725%);fill-opacity:1;" d="M 27.691406 1.589844 C 27.691406 1.589844 18.039062 0.800781 20.132812 11.101562 C 20.132812 11.101562 29.066406 12.65625 27.691406 1.589844 Z M 27.691406 1.589844 "/>
<path style=" stroke:none;fill-rule:nonzero;fill:rgb(12.941176%,12.156863%,11.764706%);fill-opacity:1;" d="M 38.171875 19.265625 C 35.101562 13.652344 30.222656 12.8125 27.585938 12.8125 C 25.335938 12.8125 23.039062 13.425781 21.589844 14.394531 L 21.589844 12.777344 C 23.105469 12.71875 25.574219 12.289062 27.363281 10.261719 C 29.121094 8.277344 29.773438 5.300781 29.28125 1.414062 C 29.1875 0.667969 28.578125 0.0859375 27.824219 0.0195312 C 27.824219 0.0195312 27.605469 0 27.230469 0 C 25.789062 0 22.191406 0.292969 19.972656 3.003906 C 18.484375 4.820312 17.957031 7.296875 18.390625 10.367188 L 18.390625 14.492188 C 17.203125 13.765625 14.820312 12.9375 11.996094 12.9375 C 7.25 12.9375 3.570312 15.214844 1.640625 19.359375 C -1.234375 25.496094 -0.226562 35.75 3.890625 42.199219 C 6.253906 45.910156 9.292969 47.898438 12.691406 47.953125 C 12.851562 47.980469 13.097656 48 13.417969 48 C 14.5 48 16.75 47.71875 19.714844 45.796875 C 19.894531 45.683594 20.046875 45.742188 20.140625 45.796875 C 23.125 47.707031 25.761719 48 27.070312 48 C 27.457031 48 27.75 47.972656 27.917969 47.953125 C 30.910156 47.898438 33.832031 45.730469 36.148438 41.832031 C 39.820312 35.628906 41.578125 25.496094 38.171875 19.265625 Z M 22.457031 5.027344 C 23.464844 3.792969 25.113281 3.390625 26.230469 3.257812 C 26.316406 5.460938 25.894531 7.097656 24.96875 8.144531 C 24 9.238281 22.605469 9.539062 21.515625 9.585938 C 21.28125 7.597656 21.601562 6.0625 22.457031 5.027344 Z M 33.386719 40.195312 C 31.664062 43.09375 29.632812 44.75 27.804688 44.75 C 27.730469 44.75 27.636719 44.761719 27.558594 44.769531 C 27.511719 44.78125 27.34375 44.796875 27.070312 44.796875 C 26.109375 44.796875 24.171875 44.582031 21.871094 43.105469 C 20.722656 42.371094 19.132812 42.359375 17.984375 43.105469 C 15.621094 44.628906 14.011719 44.796875 13.425781 44.796875 C 13.304688 44.796875 13.210938 44.789062 13.191406 44.789062 C 13.078125 44.761719 12.957031 44.75 12.835938 44.75 C 9.925781 44.75 7.835938 42.425781 6.589844 40.488281 C 3.0625 34.941406 2.117188 25.890625 4.539062 20.714844 C 6.308594 16.929688 9.578125 16.136719 11.996094 16.136719 C 14.03125 16.136719 15.882812 16.703125 16.75 17.238281 C 19.140625 18.707031 21.289062 18.640625 23.238281 17.144531 C 23.820312 16.695312 25.46875 16.023438 27.585938 16.023438 C 29.941406 16.023438 33.199219 16.855469 35.363281 20.808594 C 38.191406 25.957031 36.53125 34.882812 33.386719 40.195312 Z M 33.386719 40.195312 "/>
<path style=" stroke:none;fill-rule:nonzero;fill:rgb(100%,100%,100%);fill-opacity:1;" d="M 33.03125 28.652344 C 32.597656 28.652344 32.238281 28.304688 32.230469 27.859375 C 32.191406 24.707031 31.402344 22.550781 29.886719 21.4375 C 27.964844 20.035156 25.46875 20.769531 25.449219 20.78125 C 25.027344 20.910156 24.585938 20.667969 24.453125 20.242188 C 24.320312 19.820312 24.566406 19.375 24.988281 19.246094 C 25.121094 19.207031 28.285156 18.273438 30.835938 20.148438 C 32.777344 21.570312 33.792969 24.160156 33.839844 27.839844 C 33.839844 28.273438 33.480469 28.640625 33.03125 28.652344 C 33.039062 28.652344 33.039062 28.652344 33.03125 28.652344 Z M 33.03125 28.652344 "/>
</g>
</svg>
