<?xml version="1.0" encoding="UTF-8"?>
<svg xmlns="http://www.w3.org/2000/svg" xmlns:xlink="http://www.w3.org/1999/xlink" width="40px" height="40px" viewBox="0 0 40 40" version="1.1">
<g id="surface1">
<path style=" stroke:none;fill-rule:nonzero;fill:rgb(47.45098%,23.137255%,46.27451%);fill-opacity:1;" d="M 26.910156 19.507812 L 26.910156 12.566406 C 26.910156 8.832031 23.925781 5.558594 20.195312 5.558594 L 20.136719 5.558594 C 16.40625 5.558594 13.015625 8.832031 13.015625 12.566406 L 13.015625 19.507812 C 10.238281 21.59375 8.578125 24.878906 8.578125 28.574219 C 8.578125 34.886719 13.714844 40 20.027344 40 C 26.335938 40 31.421875 34.886719 31.421875 28.574219 C 31.417969 24.878906 29.691406 21.59375 26.910156 19.507812 Z M 26.910156 19.507812 "/>
<path style=" stroke:none;fill-rule:nonzero;fill:rgb(33.72549%,70.196078%,0%);fill-opacity:1;" d="M 21.480469 11.578125 L 19.003906 11.578125 L 18.507812 0 L 21.976562 0 Z M 21.480469 11.578125 "/>
<path style=" stroke:none;fill-rule:nonzero;fill:rgb(33.72549%,70.196078%,0%);fill-opacity:1;" d="M 19.441406 5.042969 C 19.601562 5.84375 19.6875 6.667969 19.6875 7.511719 C 19.6875 7.542969 19.6875 7.570312 19.6875 7.601562 C 20.867188 9.347656 23.050781 11.273438 26.808594 10.789062 C 26.808594 10.789062 25.28125 5.027344 19.441406 5.042969 Z M 19.441406 5.042969 "/>
<path style=" stroke:none;fill-rule:nonzero;fill:rgb(33.72549%,70.196078%,0%);fill-opacity:1;" d="M 21.109375 4.929688 C 21.109375 4.929688 19.835938 11.585938 13.214844 11.21875 C 13.214844 11.21875 14.433594 4.714844 21.109375 4.929688 Z M 21.109375 4.929688 "/>
<path style=" stroke:none;fill-rule:nonzero;fill:rgb(33.72549%,70.196078%,0%);fill-opacity:1;" d="M 20.097656 4.230469 C 20.097656 4.230469 24.414062 9.457031 19.902344 14.320312 C 19.902344 14.320312 15.671875 9.234375 20.097656 4.230469 Z M 20.097656 4.230469 "/>
</g>
</svg>
