<?xml version="1.0" encoding="UTF-8"?>
<svg xmlns="http://www.w3.org/2000/svg" xmlns:xlink="http://www.w3.org/1999/xlink" width="40px" height="40px" viewBox="0 0 40 40" version="1.1">
<g id="surface1">
<path style=" stroke:none;fill-rule:nonzero;fill:rgb(53.333333%,75.294118%,34.117647%);fill-opacity:1;" d="M 24.539062 16.136719 C 24.539062 16.136719 33.269531 10.960938 38.816406 18.273438 C 38.816406 18.273438 40.253906 19.9375 39.148438 21.527344 C 38.058594 23.09375 35.632812 22.761719 34.425781 21.101562 C 33.335938 19.605469 30.707031 17.707031 24.539062 16.136719 Z M 24.539062 16.136719 "/>
<path style=" stroke:none;fill-rule:nonzero;fill:rgb(53.333333%,75.294118%,34.117647%);fill-opacity:1;" d="M 24.539062 16.136719 C 24.539062 16.136719 29.851562 7.539062 23.023438 2.480469 C 23.023438 2.480469 20.769531 0.457031 18.734375 1.175781 C 16.839844 1.847656 16.789062 4.484375 18.53125 5.484375 C 20.441406 6.578125 23.054688 9.3125 24.539062 16.136719 Z M 24.539062 16.136719 "/>
<path style=" stroke:none;fill-rule:nonzero;fill:rgb(53.333333%,75.294118%,34.117647%);fill-opacity:1;" d="M 38.632812 18.722656 C 38.632812 18.722656 38.679688 18.785156 38.742188 18.871094 C 38.921875 18.707031 39.097656 18.53125 39.257812 18.328125 C 40.734375 16.4375 39.550781 14.976562 39.550781 14.976562 C 35.175781 8.390625 24.988281 15.546875 24.988281 15.546875 C 25.480469 15.582031 25.9375 15.625 26.382812 15.671875 C 29.292969 14.609375 34.746094 13.597656 38.632812 18.722656 Z M 38.632812 18.722656 "/>
<path style=" stroke:none;fill-rule:nonzero;fill:rgb(64.313725%,90.980392%,41.176471%);fill-opacity:1;" d="M 23.023438 2.480469 C 28.289062 6.382812 26.335938 12.386719 25.164062 14.929688 C 25.167969 14.988281 25.171875 15.039062 25.171875 15.097656 C 25.171875 15.097656 32.441406 5.023438 26.273438 1.0625 C 26.273438 1.0625 24.308594 -0.617188 22.027344 0.539062 C 21.636719 0.738281 21.300781 0.996094 21.019531 1.285156 C 22.160156 1.707031 23.023438 2.480469 23.023438 2.480469 Z M 23.023438 2.480469 "/>
<path style=" stroke:none;fill-rule:nonzero;fill:rgb(39.607843%,61.176471%,20.784314%);fill-opacity:1;" d="M 35.699219 4.335938 C 33.117188 2.664062 29.84375 5.191406 29.84375 5.191406 C 29.300781 5.839844 28.808594 6.542969 28.351562 7.261719 C 27.902344 10.550781 25.757812 14.105469 24.691406 15.703125 C 24.628906 15.925781 24.578125 16.121094 24.539062 16.261719 C 25.773438 15.433594 29.371094 13.1875 32.90625 12.609375 C 33.78125 12.027344 34.617188 11.386719 35.347656 10.695312 C 39.25 6.980469 35.699219 4.335938 35.699219 4.335938 Z M 35.699219 4.335938 "/>
<path style=" stroke:none;fill-rule:nonzero;fill:rgb(64.313725%,90.980392%,41.176471%);fill-opacity:1;" d="M 24.539062 16.136719 C 24.539062 16.136719 33.269531 10.960938 38.816406 18.273438 C 38.816406 18.273438 40.253906 19.9375 39.148438 21.527344 C 38.058594 23.09375 35.632812 22.761719 34.425781 21.101562 C 33.335938 19.605469 30.707031 17.707031 24.539062 16.136719 Z M 24.539062 16.136719 "/>
<path style=" stroke:none;fill-rule:nonzero;fill:rgb(94.901961%,40.784314%,10.980392%);fill-opacity:1;" d="M 25.027344 15.351562 C 24.828125 15.742188 24.695312 15.960938 24.695312 15.960938 C 24.695312 15.960938 25.023438 15.765625 25.59375 15.503906 C 25.410156 15.453125 25.222656 15.402344 25.027344 15.351562 Z M 25.027344 15.351562 "/>
<path style=" stroke:none;fill-rule:nonzero;fill:rgb(92.941176%,56.078431%,12.54902%);fill-opacity:1;" d="M 29.578125 20.003906 C 29.878906 19.175781 29.859375 18.355469 29.671875 17.578125 C 28.34375 17.023438 26.710938 16.472656 24.695312 15.960938 C 24.207031 13.710938 23.59375 11.914062 22.925781 10.46875 C 22.003906 10.148438 20.996094 10.035156 19.976562 10.398438 C 16.773438 11.550781 2.695312 31.804688 0.0625 38.867188 C -0.183594 39.53125 0.335938 40.050781 1 39.804688 C 8.0625 37.171875 28.429688 23.207031 29.578125 20.003906 Z M 29.578125 20.003906 "/>
<path style=" stroke:none;fill-rule:nonzero;fill:rgb(86.666667%,43.921569%,9.019608%);fill-opacity:1;" d="M 5.828125 33.152344 C 5.351562 32.921875 4.886719 32.644531 4.449219 32.324219 C 4.132812 32.09375 3.691406 32.160156 3.460938 32.476562 C 3.230469 32.792969 3.296875 33.234375 3.613281 33.464844 C 4.121094 33.835938 4.660156 34.160156 5.21875 34.425781 C 5.316406 34.472656 5.417969 34.496094 5.523438 34.496094 C 5.785156 34.496094 6.039062 34.347656 6.160156 34.09375 C 6.328125 33.742188 6.179688 33.320312 5.828125 33.152344 Z M 5.828125 33.152344 "/>
<path style=" stroke:none;fill-rule:nonzero;fill:rgb(86.666667%,43.921569%,9.019608%);fill-opacity:1;" d="M 27.707031 19.683594 C 26.257812 19.132812 24.914062 18.140625 23.714844 16.738281 C 23.460938 16.441406 23.015625 16.40625 22.71875 16.660156 C 22.417969 16.914062 22.386719 17.359375 22.640625 17.65625 C 23.996094 19.242188 25.53125 20.371094 27.203125 21.007812 C 27.285156 21.039062 27.371094 21.054688 27.453125 21.054688 C 27.738281 21.054688 28.007812 20.882812 28.117188 20.597656 C 28.253906 20.234375 28.070312 19.824219 27.707031 19.683594 Z M 27.707031 19.683594 "/>
<path style=" stroke:none;fill-rule:nonzero;fill:rgb(86.666667%,43.921569%,9.019608%);fill-opacity:1;" d="M 16.074219 14.113281 C 16.351562 14.183594 16.570312 14.414062 16.605469 14.71875 C 16.730469 15.871094 17.328125 17.367188 18.375 18.109375 C 18.695312 18.332031 18.773438 18.773438 18.546875 19.09375 C 18.410156 19.289062 18.191406 19.394531 17.96875 19.394531 C 17.828125 19.394531 17.683594 19.351562 17.5625 19.261719 C 16.144531 18.265625 15.441406 16.472656 15.238281 15.125 "/>
<path style=" stroke:none;fill-rule:nonzero;fill:rgb(86.666667%,43.921569%,9.019608%);fill-opacity:1;" d="M 17.5625 19.261719 C 17.683594 19.351562 17.828125 19.394531 17.96875 19.394531 C 18.191406 19.394531 18.410156 19.289062 18.546875 19.09375 C 18.773438 18.773438 18.695312 18.332031 18.375 18.109375 C 17.328125 17.367188 16.730469 15.871094 16.605469 14.71875 C 16.570312 14.417969 16.351562 14.183594 16.074219 14.113281 C 15.804688 14.4375 15.523438 14.773438 15.238281 15.125 C 15.441406 16.472656 16.144531 18.265625 17.5625 19.261719 Z M 17.5625 19.261719 "/>
<path style=" stroke:none;fill-rule:nonzero;fill:rgb(86.666667%,43.921569%,9.019608%);fill-opacity:1;" d="M 21.472656 27.292969 C 20.132812 27.078125 18.378906 26.371094 17.398438 24.980469 C 17.171875 24.660156 17.25 24.21875 17.566406 23.992188 C 17.886719 23.769531 18.328125 23.84375 18.554688 24.164062 C 19.292969 25.210938 20.789062 25.808594 21.945312 25.9375 C 22.253906 25.96875 22.484375 26.203125 22.550781 26.488281 "/>
<path style=" stroke:none;fill-rule:nonzero;fill:rgb(86.666667%,43.921569%,9.019608%);fill-opacity:1;" d="M 21.945312 25.9375 C 20.789062 25.808594 19.292969 25.210938 18.554688 24.164062 C 18.328125 23.84375 17.886719 23.765625 17.570312 23.992188 C 17.25 24.21875 17.171875 24.660156 17.398438 24.980469 C 18.378906 26.371094 20.132812 27.078125 21.472656 27.292969 C 21.839844 27.023438 22.199219 26.753906 22.550781 26.488281 C 22.488281 26.203125 22.253906 25.96875 21.945312 25.9375 Z M 21.945312 25.9375 "/>
<path style=" stroke:none;fill-rule:nonzero;fill:rgb(86.666667%,43.921569%,9.019608%);fill-opacity:1;" d="M 10.441406 21.515625 C 10.722656 21.582031 10.949219 21.816406 10.984375 22.121094 C 11.0625 22.84375 11.433594 23.78125 12.078125 24.238281 C 12.398438 24.464844 12.472656 24.90625 12.25 25.226562 C 12.109375 25.421875 11.890625 25.523438 11.671875 25.523438 C 11.53125 25.523438 11.386719 25.484375 11.261719 25.394531 C 10.324219 24.734375 9.820312 23.585938 9.636719 22.660156 "/>
<path style=" stroke:none;fill-rule:nonzero;fill:rgb(86.666667%,43.921569%,9.019608%);fill-opacity:1;" d="M 11.261719 25.394531 C 11.386719 25.484375 11.53125 25.523438 11.671875 25.523438 C 11.894531 25.523438 12.113281 25.421875 12.25 25.226562 C 12.472656 24.90625 12.398438 24.464844 12.078125 24.238281 C 11.433594 23.78125 11.0625 22.847656 10.984375 22.121094 C 10.949219 21.8125 10.722656 21.582031 10.441406 21.515625 C 10.171875 21.894531 9.90625 22.273438 9.636719 22.660156 C 9.820312 23.585938 10.324219 24.734375 11.261719 25.394531 Z M 11.261719 25.394531 "/>
<path style=" stroke:none;fill-rule:nonzero;fill:rgb(86.666667%,43.921569%,9.019608%);fill-opacity:1;" d="M 12.75 33.285156 C 11.792969 33.160156 10.457031 32.65625 9.71875 31.613281 C 9.496094 31.292969 9.570312 30.851562 9.890625 30.625 C 10.210938 30.398438 10.652344 30.476562 10.875 30.796875 C 11.332031 31.441406 12.269531 31.8125 12.996094 31.890625 C 13.382812 31.933594 13.664062 32.285156 13.621094 32.671875 C 13.617188 32.695312 13.605469 32.710938 13.601562 32.734375 "/>
<path style=" stroke:none;fill-rule:nonzero;fill:rgb(86.666667%,43.921569%,9.019608%);fill-opacity:1;" d="M 12.996094 31.890625 C 12.269531 31.8125 11.332031 31.441406 10.875 30.796875 C 10.652344 30.476562 10.210938 30.398438 9.890625 30.625 C 9.570312 30.851562 9.496094 31.292969 9.71875 31.613281 C 10.457031 32.65625 11.792969 33.160156 12.75 33.285156 C 13.035156 33.105469 13.320312 32.917969 13.601562 32.734375 C 13.605469 32.714844 13.617188 32.695312 13.621094 32.671875 C 13.664062 32.285156 13.382812 31.933594 12.996094 31.890625 Z M 12.996094 31.890625 "/>
</g>
</svg>
