<?xml version="1.0" encoding="UTF-8"?>
<svg xmlns="http://www.w3.org/2000/svg" xmlns:xlink="http://www.w3.org/1999/xlink" width="40px" height="40px" viewBox="0 0 40 40" version="1.1">
<g id="surface1">
<path style=" stroke:none;fill-rule:nonzero;fill:rgb(54.901961%,77.647059%,24.313725%);fill-opacity:1;" d="M 14.6875 8.1875 C 15.625 5.75 22.3125 1.25 22.3125 1.25 C 22.3125 1.25 24.4375 9.3125 23.5625 11.6875 C 22.6875 14.125 20 15.25 17.5625 14.3125 C 15.0625 13.3125 13.8125 10.5625 14.6875 8.1875 "/>
<path style=" stroke:none;fill-rule:nonzero;fill:rgb(39.215686%,53.72549%,18.431373%);fill-opacity:1;" d="M 10.75 13 C 9.625 10.6875 11.25 2.6875 11.25 2.6875 C 11.25 2.6875 18.375 6.875 19.4375 9.25 C 20.5 11.5625 19.4375 14.3125 17 15.375 C 14.625 16.375 11.8125 15.3125 10.75 13 "/>
<path style=" stroke:none;fill-rule:nonzero;fill:rgb(54.901961%,77.647059%,24.313725%);fill-opacity:1;" d="M 12.9375 10.75 C 10.625 9.6875 2.6875 11.25 2.6875 11.25 C 2.6875 11.25 6.875 18.4375 9.1875 19.5625 C 11.5 20.625 14.25 19.5625 15.25 17.125 C 16.3125 14.6875 15.25 11.8125 12.9375 10.75 "/>
<path style=" stroke:none;fill-rule:nonzero;fill:rgb(39.215686%,53.72549%,18.431373%);fill-opacity:1;" d="M 8.125 14.75 C 5.75 15.6875 1.25 22.4375 1.25 22.4375 C 1.25 22.4375 9.25 24.5625 11.6875 23.6875 C 14.0625 22.8125 15.25 20.0625 14.25 17.625 C 13.25 15.125 10.5625 13.875 8.125 14.75 "/>
<path style=" stroke:none;fill-rule:nonzero;fill:rgb(93.72549%,30.196078%,23.529412%);fill-opacity:1;" d="M 32.1875 10.4375 C 39.375 17.6875 40.1875 33.375 36.8125 36.8125 C 33.375 40.25 17.8125 39.375 10.5625 32.125 C 5.25 26.8125 7.75 18.75 13.25 13.1875 C 18.8125 7.625 26.875 5.125 32.1875 10.4375 "/>
<path style=" stroke:none;fill-rule:nonzero;fill:rgb(100%,94.117647%,94.117647%);fill-opacity:1;" d="M 25.4375 9.8125 C 25.125 9.8125 24.8125 9.9375 24.625 10.1875 C 24.3125 10.6875 24.5625 11.4375 25.3125 11.9375 C 25.6875 12.1875 26.0625 12.3125 26.375 12.3125 C 26.6875 12.3125 27 12.1875 27.125 11.9375 C 27.4375 11.4375 27.1875 10.6875 26.4375 10.1875 C 26.1875 9.9375 25.8125 9.8125 25.4375 9.8125 "/>
<path style=" stroke:none;fill-rule:nonzero;fill:rgb(100%,94.117647%,94.117647%);fill-opacity:1;" d="M 27.75 20.75 C 27.5625 20.75 27.375 20.8125 27.1875 20.9375 C 26.75 21.3125 26.875 22.125 27.375 22.8125 C 27.75 23.25 28.25 23.5 28.625 23.5 C 28.8125 23.5 29 23.4375 29.1875 23.3125 C 29.625 22.9375 29.5 22.125 29 21.4375 C 28.625 21 28.125 20.75 27.75 20.75 "/>
<path style=" stroke:none;fill-rule:nonzero;fill:rgb(100%,94.117647%,94.117647%);fill-opacity:1;" d="M 22.375 15.375 C 22.1875 15.375 22 15.4375 21.8125 15.5625 C 21.375 15.9375 21.4375 16.75 22 17.4375 C 22.375 17.875 22.875 18.125 23.25 18.125 C 23.4375 18.125 23.625 18.0625 23.8125 17.9375 C 24.25 17.5625 24.1875 16.75 23.625 16.0625 C 23.25 15.625 22.75 15.375 22.375 15.375 "/>
<path style=" stroke:none;fill-rule:nonzero;fill:rgb(100%,94.117647%,94.117647%);fill-opacity:1;" d="M 31.5625 16 C 31.4375 16 31.3125 16 31.1875 16.0625 C 30.6875 16.3125 30.625 17.1875 31 17.9375 C 31.3125 18.5 31.8125 18.875 32.3125 18.875 C 32.4375 18.875 32.5625 18.875 32.6875 18.8125 C 33.1875 18.5625 33.25 17.6875 32.875 16.9375 C 32.5625 16.375 32 16 31.5625 16 "/>
<path style=" stroke:none;fill-rule:nonzero;fill:rgb(100%,94.117647%,94.117647%);fill-opacity:1;" d="M 34.4375 24.25 L 34.25 24.25 C 33.6875 24.375 33.375 25.1875 33.625 26 C 33.8125 26.75 34.3125 27.25 34.875 27.25 L 35.0625 27.25 C 35.625 27.125 35.9375 26.3125 35.6875 25.5 C 35.4375 24.75 34.9375 24.25 34.4375 24.25 "/>
<path style=" stroke:none;fill-rule:nonzero;fill:rgb(100%,94.117647%,94.117647%);fill-opacity:1;" d="M 33.6875 32 C 33.5 32 33.25 32.0625 33.125 32.1875 C 32.6875 32.5625 32.8125 33.4375 33.375 34.0625 C 33.75 34.5 34.25 34.6875 34.625 34.6875 C 34.8125 34.6875 35.0625 34.625 35.1875 34.5 C 35.625 34.125 35.5 33.25 34.9375 32.625 C 34.5625 32.25 34.125 32 33.6875 32 "/>
<path style=" stroke:none;fill-rule:nonzero;fill:rgb(100%,94.117647%,94.117647%);fill-opacity:1;" d="M 19.8125 31.0625 C 19.5 31.0625 19.1875 31.1875 19 31.4375 C 18.6875 31.9375 19 32.6875 19.6875 33.1875 C 20.0625 33.4375 20.4375 33.5625 20.75 33.5625 C 21.0625 33.5625 21.375 33.4375 21.5625 33.1875 C 21.875 32.6875 21.5625 31.9375 20.875 31.4375 C 20.5625 31.1875 20.1875 31.0625 19.8125 31.0625 "/>
<path style=" stroke:none;fill-rule:nonzero;fill:rgb(100%,94.117647%,94.117647%);fill-opacity:1;" d="M 12.625 29 C 12.25 29 12 29.125 11.8125 29.375 C 11.5 29.875 11.8125 30.625 12.5 31.125 C 12.875 31.375 13.25 31.5 13.5625 31.5 C 13.875 31.5 14.1875 31.375 14.375 31.125 C 14.6875 30.625 14.375 29.875 13.6875 29.375 C 13.3125 29.125 12.9375 29 12.625 29 "/>
<path style=" stroke:none;fill-rule:nonzero;fill:rgb(100%,94.117647%,94.117647%);fill-opacity:1;" d="M 26 34.0625 C 25.5 34.0625 25.125 34.25 24.9375 34.625 C 24.75 35.1875 25.1875 35.875 26 36.1875 C 26.25 36.3125 26.5625 36.375 26.8125 36.375 C 27.3125 36.375 27.6875 36.1875 27.875 35.8125 C 28.0625 35.25 27.625 34.5625 26.8125 34.25 C 26.5625 34.125 26.25 34.0625 26 34.0625 "/>
<path style=" stroke:none;fill-rule:nonzero;fill:rgb(100%,94.117647%,94.117647%);fill-opacity:1;" d="M 27.4375 27.8125 C 27.0625 27.8125 26.75 27.9375 26.5625 28.25 C 26.25 28.75 26.625 29.5 27.375 29.9375 C 27.6875 30.125 28.0625 30.25 28.375 30.25 C 28.75 30.25 29.0625 30.125 29.25 29.8125 C 29.5625 29.3125 29.1875 28.5625 28.4375 28.125 C 28.0625 27.9375 27.75 27.8125 27.4375 27.8125 "/>
<path style=" stroke:none;fill-rule:nonzero;fill:rgb(100%,94.117647%,94.117647%);fill-opacity:1;" d="M 20.75 23.375 C 20.4375 23.375 20.1875 23.5 20.0625 23.6875 C 19.6875 24.125 19.9375 24.9375 20.5625 25.5 C 20.9375 25.8125 21.375 25.9375 21.75 25.9375 C 22.0625 25.9375 22.3125 25.8125 22.4375 25.625 C 22.8125 25.1875 22.5625 24.375 21.9375 23.8125 C 21.5625 23.5625 21.125 23.375 20.75 23.375 "/>
<path style=" stroke:none;fill-rule:nonzero;fill:rgb(100%,94.117647%,94.117647%);fill-opacity:1;" d="M 15.3125 14.9375 C 15.0625 14.9375 14.875 15 14.6875 15.1875 C 14.25 15.625 14.4375 16.4375 15 17 C 15.375 17.375 15.8125 17.5625 16.25 17.5625 C 16.5 17.5625 16.6875 17.5 16.875 17.3125 C 17.3125 16.875 17.125 16.0625 16.5625 15.5 C 16.1875 15.125 15.75 14.9375 15.3125 14.9375 "/>
<path style=" stroke:none;fill-rule:nonzero;fill:rgb(100%,94.117647%,94.117647%);fill-opacity:1;" d="M 13.5625 21.6875 C 13.25 21.6875 13 21.8125 12.8125 22 C 12.4375 22.4375 12.6875 23.25 13.375 23.8125 C 13.75 24.125 14.1875 24.25 14.5 24.25 C 14.8125 24.25 15.0625 24.125 15.25 23.9375 C 15.625 23.5 15.375 22.6875 14.6875 22.125 C 14.3125 21.875 13.875 21.6875 13.5625 21.6875 "/>
</g>
</svg>
