<?xml version="1.0" encoding="UTF-8"?>
<svg xmlns="http://www.w3.org/2000/svg" xmlns:xlink="http://www.w3.org/1999/xlink" width="40px" height="40px" viewBox="0 0 40 40" version="1.1">
<g id="surface1">
<path style=" stroke:none;fill-rule:nonzero;fill:rgb(60.392157%,81.960784%,29.411765%);fill-opacity:1;" d="M 29.949219 17 C 31.613281 20.199219 32.601562 23.804688 32.601562 26.71875 C 32.601562 33.679688 26.960938 39.324219 20 39.324219 C 13.039062 39.324219 7.394531 33.679688 7.394531 26.71875 C 7.394531 23.804688 8.386719 20.199219 10.050781 17 C 11.054688 15.0625 11.929688 13.058594 12.652344 10.996094 C 13.972656 7.234375 16.765625 3.515625 20 3.515625 C 23.234375 3.515625 26.027344 7.234375 27.347656 10.996094 C 28.070312 13.058594 28.945312 15.0625 29.949219 17 Z M 25.898438 27.246094 C 25.898438 23.988281 23.257812 18.765625 20 18.765625 C 16.742188 18.765625 14.101562 23.988281 14.101562 27.246094 C 14.101562 30.503906 16.742188 33.148438 20 33.148438 C 23.257812 33.148438 25.898438 30.503906 25.898438 27.246094 Z M 25.898438 27.246094 "/>
<path style=" stroke:none;fill-rule:nonzero;fill:rgb(69.803922%,44.705882%,7.843137%);fill-opacity:1;" d="M 20 18.765625 C 23.257812 18.765625 25.898438 23.988281 25.898438 27.246094 C 25.898438 30.503906 23.257812 33.148438 20 33.148438 C 16.742188 33.148438 14.101562 30.503906 14.101562 27.246094 C 14.101562 23.988281 16.742188 18.765625 20 18.765625 Z M 20 18.765625 "/>
<path style=" stroke:none;fill-rule:nonzero;fill:rgb(100%,100%,100%);fill-opacity:1;" d="M 23.523438 29.410156 C 23.4375 29.410156 23.347656 29.394531 23.261719 29.355469 C 22.917969 29.210938 22.757812 28.816406 22.902344 28.46875 C 23.066406 28.082031 23.148438 27.671875 23.148438 27.246094 C 23.148438 26.125 22.609375 24.476562 21.839844 23.238281 C 21.613281 22.875 21.371094 22.554688 21.128906 22.285156 C 20.875 22.007812 20.898438 21.582031 21.175781 21.328125 C 21.449219 21.078125 21.878906 21.101562 22.128906 21.375 C 22.429688 21.707031 22.71875 22.09375 22.984375 22.523438 C 23.90625 24 24.503906 25.855469 24.503906 27.246094 C 24.503906 27.851562 24.382812 28.441406 24.148438 29 C 24.039062 29.257812 23.789062 29.410156 23.523438 29.410156 Z M 23.523438 29.410156 "/>
<path style=" stroke:none;fill-rule:nonzero;fill:rgb(20%,20%,20%);fill-opacity:1;" d="M 20 18.089844 C 18.28125 18.089844 16.59375 19.277344 15.253906 21.425781 C 14.125 23.238281 13.421875 25.46875 13.421875 27.246094 C 13.421875 30.871094 16.375 33.824219 20 33.824219 C 23.625 33.824219 26.578125 30.871094 26.578125 27.246094 C 26.578125 25.46875 25.875 23.238281 24.746094 21.425781 C 23.40625 19.277344 21.71875 18.089844 20 18.089844 Z M 20 32.46875 C 17.121094 32.46875 14.777344 30.125 14.777344 27.246094 C 14.777344 24.304688 17.21875 19.441406 20 19.441406 C 22.78125 19.441406 25.222656 24.304688 25.222656 27.246094 C 25.222656 30.125 22.878906 32.46875 20 32.46875 Z M 20 32.46875 "/>
<path style=" stroke:none;fill-rule:nonzero;fill:rgb(20%,20%,20%);fill-opacity:1;" d="M 30.550781 16.6875 C 29.550781 14.765625 28.6875 12.773438 27.988281 10.773438 C 26.6875 7.074219 23.96875 3.34375 20.675781 2.886719 L 20.675781 0.675781 C 20.675781 0.304688 20.375 0 20 0 C 19.625 0 19.324219 0.304688 19.324219 0.675781 L 19.324219 2.886719 C 16.03125 3.34375 13.3125 7.074219 12.011719 10.773438 C 11.3125 12.773438 10.449219 14.765625 9.449219 16.6875 C 7.742188 19.980469 6.71875 23.730469 6.71875 26.71875 C 6.71875 34.042969 12.675781 40 20 40 C 27.324219 40 33.28125 34.042969 33.28125 26.71875 C 33.28125 23.730469 32.257812 19.980469 30.550781 16.6875 Z M 20 38.648438 C 13.421875 38.648438 8.074219 33.296875 8.074219 26.71875 C 8.074219 23.9375 9.035156 20.417969 10.648438 17.308594 C 11.679688 15.332031 12.566406 13.28125 13.289062 11.222656 C 14.476562 7.835938 17.082031 4.191406 20 4.191406 C 22.917969 4.191406 25.523438 7.835938 26.710938 11.222656 C 27.433594 13.28125 28.320312 15.332031 29.351562 17.308594 C 30.964844 20.417969 31.925781 23.9375 31.925781 26.71875 C 31.925781 33.296875 26.578125 38.648438 20 38.648438 Z M 20 38.648438 "/>
<path style=" stroke:none;fill-rule:nonzero;fill:rgb(100%,100%,100%);fill-opacity:1;" d="M 20.679688 20.863281 C 20.679688 21.238281 20.378906 21.542969 20.003906 21.542969 C 19.632812 21.542969 19.328125 21.238281 19.328125 20.863281 C 19.328125 20.492188 19.632812 20.1875 20.003906 20.1875 C 20.378906 20.1875 20.679688 20.492188 20.679688 20.863281 Z M 20.679688 20.863281 "/>
</g>
</svg>
