<?xml version="1.0" encoding="UTF-8"?>
<svg xmlns="http://www.w3.org/2000/svg" xmlns:xlink="http://www.w3.org/1999/xlink" width="40px" height="40px" viewBox="0 0 40 40" version="1.1">
<g id="surface1">
<path style=" stroke:none;fill-rule:nonzero;fill:rgb(44.313725%,64.705882%,9.019608%);fill-opacity:1;" d="M 28.035156 20.460938 C 27.753906 21.164062 27.425781 22.03125 27.085938 23.039062 C 25.757812 26.929688 24.199219 32.886719 24.199219 39.429688 L 15.800781 39.429688 C 15.800781 32.886719 14.242188 26.929688 12.914062 23.039062 C 12.574219 22.03125 12.246094 21.164062 11.964844 20.460938 C 12.820312 20.347656 13.605469 20 14.246094 19.480469 C 15.113281 20.605469 16.300781 21.472656 17.675781 21.9375 C 17.8125 22.835938 17.945312 23.816406 18.074219 24.867188 C 18.109375 25.15625 18.140625 25.449219 18.175781 25.75 C 18.28125 26.679688 19.0625 27.386719 20 27.386719 C 20.9375 27.386719 21.71875 26.679688 21.824219 25.75 C 21.855469 25.449219 21.890625 25.15625 21.925781 24.867188 C 22.050781 23.816406 22.1875 22.835938 22.324219 21.9375 C 23.695312 21.472656 24.886719 20.605469 25.753906 19.480469 C 26.394531 20 27.179688 20.347656 28.035156 20.460938 Z M 28.035156 20.460938 "/>
<path style=" stroke:none;fill-rule:nonzero;fill:rgb(39.215686%,55.686275%,7.45098%);fill-opacity:1;" d="M 15.382812 23.460938 C 16.054688 24.019531 16.828125 24.457031 17.675781 24.742188 C 17.804688 24.789062 17.9375 24.828125 18.074219 24.867188 C 17.945312 23.816406 17.8125 22.835938 17.675781 21.9375 C 16.664062 21.59375 15.75 21.03125 14.992188 20.308594 C 14.859375 20.183594 14.734375 20.050781 14.609375 19.914062 C 14.605469 19.914062 14.605469 19.910156 14.601562 19.910156 C 14.546875 19.847656 14.492188 19.785156 14.441406 19.71875 C 14.433594 19.710938 14.425781 19.703125 14.417969 19.695312 C 14.359375 19.625 14.300781 19.554688 14.246094 19.480469 C 13.605469 20 12.820312 20.347656 11.964844 20.460938 C 12.246094 21.164062 12.574219 22.03125 12.914062 23.039062 C 14.242188 26.929688 15.800781 32.886719 15.800781 39.429688 L 18.125 39.429688 C 18.125 33.121094 16.675781 27.355469 15.382812 23.460938 Z M 15.382812 23.460938 "/>
<path style=" stroke:none;fill-rule:nonzero;fill:rgb(39.215686%,55.686275%,7.45098%);fill-opacity:1;" d="M 28.035156 20.460938 C 27.753906 21.164062 27.425781 22.03125 27.085938 23.039062 C 26.597656 22.863281 26.148438 22.605469 25.753906 22.289062 C 24.886719 23.414062 23.695312 24.277344 22.324219 24.742188 C 22.191406 24.789062 22.058594 24.828125 21.925781 24.867188 C 22.050781 23.816406 22.1875 22.835938 22.324219 21.9375 C 23.695312 21.472656 24.886719 20.605469 25.753906 19.480469 C 26.394531 20 27.179688 20.347656 28.035156 20.460938 Z M 28.035156 20.460938 "/>
<path style=" stroke:none;fill-rule:nonzero;fill:rgb(60.392157%,81.960784%,29.411765%);fill-opacity:1;" d="M 28.035156 20.945312 C 27.179688 20.832031 26.394531 20.484375 25.753906 19.964844 C 24.886719 21.089844 23.695312 21.953125 22.324219 22.421875 C 21.59375 22.667969 20.8125 22.800781 20 22.800781 C 19.1875 22.800781 18.40625 22.667969 17.675781 22.421875 C 16.300781 21.953125 15.113281 21.089844 14.246094 19.964844 C 13.605469 20.484375 12.820312 20.832031 11.964844 20.945312 C 11.765625 20.972656 11.566406 20.984375 11.363281 20.984375 C 11.339844 20.984375 11.316406 20.984375 11.289062 20.984375 C 10.910156 23.132812 9.03125 24.761719 6.773438 24.761719 C 4.242188 24.761719 2.1875 22.710938 2.1875 20.175781 C 2.1875 19.367188 2.394531 18.605469 2.765625 17.945312 C 1.105469 16.914062 0 15.074219 0 12.976562 C 0 9.746094 2.617188 7.128906 5.847656 7.128906 C 6.125 7.128906 6.394531 7.152344 6.660156 7.1875 C 7.117188 4.410156 9.527344 2.292969 12.429688 2.292969 C 13.628906 2.292969 14.742188 2.65625 15.671875 3.273438 C 16.425781 1.675781 18.050781 0.570312 19.9375 0.570312 C 21.847656 0.570312 23.488281 1.707031 24.234375 3.339844 C 25.179688 2.679688 26.328125 2.292969 27.570312 2.292969 C 30.472656 2.292969 32.882812 4.410156 33.335938 7.1875 C 33.601562 7.152344 33.875 7.128906 34.152344 7.128906 C 37.382812 7.128906 40 9.746094 40 12.976562 C 40 15.074219 38.894531 16.914062 37.234375 17.945312 C 37.601562 18.605469 37.8125 19.367188 37.8125 20.175781 C 37.8125 22.710938 35.757812 24.761719 33.226562 24.761719 C 30.964844 24.761719 29.089844 23.132812 28.707031 20.984375 C 28.683594 20.984375 28.660156 20.984375 28.636719 20.984375 C 28.433594 20.984375 28.234375 20.96875 28.035156 20.945312 Z M 28.035156 20.945312 "/>
<path style=" stroke:none;fill-rule:nonzero;fill:rgb(56.470588%,73.72549%,25.882353%);fill-opacity:1;" d="M 9.15625 20.175781 C 9.15625 19.367188 9.363281 18.605469 9.734375 17.945312 C 8.074219 16.914062 6.96875 15.074219 6.96875 12.976562 C 6.96875 9.746094 9.585938 7.128906 12.816406 7.128906 C 13.09375 7.128906 13.363281 7.152344 13.628906 7.1875 C 18.933594 -0.734375 23.105469 2.457031 23.421875 2.109375 C 22.558594 1.164062 21.316406 0.570312 19.9375 0.570312 C 18.054688 0.570312 16.429688 1.675781 15.671875 3.273438 C 14.742188 2.65625 13.628906 2.292969 12.429688 2.292969 C 9.527344 2.292969 7.117188 4.410156 6.660156 7.1875 C 6.394531 7.148438 6.125 7.128906 5.847656 7.128906 C 2.617188 7.128906 0 9.746094 0 12.976562 C 0 15.074219 1.105469 16.914062 2.765625 17.945312 C 2.398438 18.605469 2.1875 19.367188 2.1875 20.175781 C 2.1875 22.710938 4.242188 24.761719 6.773438 24.761719 C 8.167969 24.761719 9.417969 24.140625 10.257812 23.15625 C 9.570312 22.355469 9.15625 21.3125 9.15625 20.175781 Z M 9.15625 20.175781 "/>
</g>
</svg>
