<?xml version="1.0" encoding="UTF-8"?>
<svg xmlns="http://www.w3.org/2000/svg" xmlns:xlink="http://www.w3.org/1999/xlink" width="40px" height="40px" viewBox="0 0 40 40" version="1.1">
<g id="surface1">
<path style=" stroke:none;fill-rule:nonzero;fill:rgb(92.54902%,41.176471%,2.745098%);fill-opacity:1;" d="M 34.558594 24.847656 C 34.558594 32.886719 28.039062 39.40625 20 39.40625 C 11.960938 39.40625 5.441406 32.886719 5.441406 24.847656 C 5.441406 16.808594 11.960938 10.289062 20 10.289062 C 28.039062 10.289062 34.558594 16.808594 34.558594 24.847656 Z M 34.558594 24.847656 "/>
<path style=" stroke:none;fill-rule:nonzero;fill:rgb(3.137255%,66.666667%,43.137255%);fill-opacity:1;" d="M 21.613281 2.722656 C 23.378906 1.328125 26.410156 2.222656 26.410156 2.222656 C 26.410156 2.222656 26.570312 5.375 24.800781 6.769531 C 23.03125 8.164062 20.003906 7.269531 20.003906 7.269531 C 20.003906 7.269531 19.84375 4.113281 21.613281 2.722656 Z M 21.613281 2.722656 "/>
<path style=" stroke:none;fill-rule:nonzero;fill:rgb(32.54902%,9.411765%,5.882353%);fill-opacity:1;" d="M 20.59375 9.707031 L 20.59375 8.007812 C 21 8.078125 21.53125 8.144531 22.113281 8.144531 C 23.375 8.144531 24.402344 7.839844 25.167969 7.234375 C 27.15625 5.671875 27.007812 2.335938 27.003906 2.191406 L 26.980469 1.773438 L 26.578125 1.652344 C 26.535156 1.640625 25.523438 1.347656 24.300781 1.347656 C 23.039062 1.347656 22.007812 1.652344 21.242188 2.253906 C 20.878906 2.542969 20.585938 2.890625 20.351562 3.269531 C 19.71875 1.371094 17.929688 0 15.820312 0 L 13.769531 0 L 13.769531 1.1875 L 15.820312 1.1875 C 17.796875 1.1875 19.40625 2.796875 19.40625 4.773438 L 19.40625 6.976562 C 19.40625 7.035156 19.40625 7.082031 19.40625 7.125 L 19.40625 9.707031 C 11.324219 10.019531 4.847656 16.691406 4.847656 24.847656 C 4.847656 33.203125 11.644531 40 20 40 C 28.355469 40 35.152344 33.203125 35.152344 24.847656 C 35.152344 16.691406 28.675781 10.019531 20.59375 9.707031 Z M 20.730469 5.625 C 20.875 4.847656 21.210938 3.792969 21.980469 3.1875 C 22.53125 2.753906 23.3125 2.535156 24.300781 2.535156 C 24.902344 2.535156 25.453125 2.621094 25.8125 2.691406 C 25.800781 2.988281 25.769531 3.402344 25.683594 3.863281 C 25.539062 4.640625 25.203125 5.695312 24.433594 6.300781 C 23.882812 6.734375 23.101562 6.957031 22.113281 6.957031 C 21.507812 6.957031 20.957031 6.871094 20.597656 6.796875 C 20.609375 6.503906 20.640625 6.085938 20.730469 5.625 Z M 20 38.8125 C 12.300781 38.8125 6.035156 32.546875 6.035156 24.847656 C 6.035156 17.148438 12.300781 10.882812 20 10.882812 C 27.699219 10.882812 33.964844 17.148438 33.964844 24.847656 C 33.964844 32.546875 27.699219 38.8125 20 38.8125 Z M 20 38.8125 "/>
<path style=" stroke:none;fill-rule:nonzero;fill:rgb(32.54902%,9.411765%,5.882353%);fill-opacity:1;" d="M 20 36.433594 L 20 37.621094 C 22.027344 37.621094 23.96875 37.160156 25.769531 36.242188 L 25.230469 35.183594 C 23.601562 36.015625 21.839844 36.433594 20 36.433594 Z M 20 36.433594 "/>
<path style=" stroke:none;fill-rule:nonzero;fill:rgb(32.54902%,9.411765%,5.882353%);fill-opacity:1;" d="M 31.585938 24.847656 C 31.585938 28.667969 29.695312 32.246094 26.53125 34.414062 L 27.203125 35.394531 C 30.691406 33.003906 32.773438 29.0625 32.773438 24.847656 Z M 31.585938 24.847656 "/>
</g>
</svg>
