<?xml version="1.0" encoding="UTF-8"?>
<svg xmlns="http://www.w3.org/2000/svg" xmlns:xlink="http://www.w3.org/1999/xlink" width="40px" height="40px" viewBox="0 0 40 40" version="1.1">
<g id="surface1">
<path style=" stroke:none;fill-rule:nonzero;fill:rgb(36.078431%,56.862745%,23.137255%);fill-opacity:1;" d="M 1.179688 5.695312 C 1.179688 5.695312 6.597656 0.140625 12.292969 0.140625 C 19.097656 0.140625 21.109375 5.625 21.109375 5.625 C 21.109375 5.625 21.804688 1.179688 26.667969 1.179688 C 31.527344 1.179688 34.375 4.652344 34.375 4.652344 C 34.375 4.652344 30.417969 7.011719 29.238281 7.5 C 26.125 8.78125 16.597656 11.457031 12.152344 10.34375 C 7.707031 9.234375 1.179688 5.695312 1.179688 5.695312 Z M 1.179688 5.695312 "/>
<path style=" stroke:none;fill-rule:nonzero;fill:rgb(100%,53.333333%,42.352941%);fill-opacity:1;" d="M 20 6.667969 C 20 6.667969 21.15625 5.671875 26.667969 5.671875 C 33.9375 5.671875 40 11.019531 40 20.035156 C 40 32.847656 23.378906 39.902344 23.378906 39.902344 C 23.378906 39.902344 1.109375 38.703125 1.109375 19.972656 C 1.109375 8.910156 8.609375 5.554688 13.332031 5.554688 C 18.84375 5.554688 20 6.667969 20 6.667969 Z M 20 6.667969 "/>
<path style=" stroke:none;fill-rule:nonzero;fill:rgb(46.666667%,69.803922%,33.333333%);fill-opacity:1;" d="M 1.179688 5.695312 C 1.179688 5.695312 6.597656 0.140625 12.292969 0.140625 C 19.097656 0.140625 21.109375 5.625 21.109375 5.625 C 21.109375 5.625 16.597656 11.457031 12.152344 10.347656 C 7.707031 9.234375 1.179688 5.695312 1.179688 5.695312 Z M 1.179688 5.695312 "/>
<path style=" stroke:none;fill-rule:nonzero;fill:rgb(86.666667%,18.039216%,26.666667%);fill-opacity:1;" d="M 25.554688 33.332031 C 25.144531 33.332031 24.769531 33.105469 24.574219 32.746094 C 24.382812 32.382812 24.402344 31.945312 24.632812 31.605469 C 24.648438 31.582031 26.667969 28.375 26.667969 21.109375 C 26.667969 13.949219 21.578125 9.796875 21.527344 9.757812 C 21.210938 9.511719 21.050781 9.113281 21.109375 8.71875 C 21.167969 8.320312 21.4375 7.988281 21.8125 7.84375 C 22.183594 7.699219 22.609375 7.765625 22.917969 8.023438 C 23.160156 8.214844 28.890625 12.894531 28.890625 21.109375 C 28.890625 29.132812 26.578125 32.691406 26.480469 32.839844 C 26.273438 33.148438 25.925781 33.335938 25.554688 33.332031 Z M 25.554688 33.332031 "/>
</g>
</svg>
